<?xml version="1.0" encoding="UTF-8" standalone="no"?>
<!-- Generator: Adobe Illustrator 16.0.0, SVG Export Plug-In . SVG Version: 6.00 Build 0)  -->

<svg
   xmlns:dc="http://purl.org/dc/elements/1.1/"
   xmlns:cc="http://creativecommons.org/ns#"
   xmlns:rdf="http://www.w3.org/1999/02/22-rdf-syntax-ns#"
   xmlns:svg="http://www.w3.org/2000/svg"
   xmlns="http://www.w3.org/2000/svg"
   xmlns:sodipodi="http://sodipodi.sourceforge.net/DTD/sodipodi-0.dtd"
   xmlns:inkscape="http://www.inkscape.org/namespaces/inkscape"
   version="1.1"
   id="Layer_1"
   x="0px"
   y="0px"
   width="59.580002"
   height="68.529999"
   viewBox="0 0 59.58 68.53"
   enable-background="new 0 0 47.58 54.53"
   xml:space="preserve"
   inkscape:version="0.48.4 r9939"
   sodipodi:docname="logo.svg"><metadata
     id="metadata33"><rdf:RDF><cc:Work
         rdf:about=""><dc:format>image/svg+xml</dc:format><dc:type
           rdf:resource="http://purl.org/dc/dcmitype/StillImage" /></cc:Work></rdf:RDF></metadata><defs
     id="defs31" /><sodipodi:namedview
     pagecolor="#ffffff"
     bordercolor="#666666"
     borderopacity="1"
     objecttolerance="10"
     gridtolerance="10"
     guidetolerance="10"
     inkscape:pageopacity="0"
     inkscape:pageshadow="2"
     inkscape:window-width="1301"
     inkscape:window-height="744"
     id="namedview29"
     showgrid="false"
     inkscape:zoom="4.327893"
     inkscape:cx="42.971087"
     inkscape:cy="54.992117"
     inkscape:window-x="65"
     inkscape:window-y="24"
     inkscape:window-maximized="1"
     inkscape:current-layer="Layer_1" /><g
     id="g3"
     transform="matrix(1.249552,0,0,1.249552,0.22735917,0.0369412)"><g
       id="g5"><path
         clip-rule="evenodd"
         d="m 38.321,54.101 c -0.758,-0.67 -1.302,-1.52 -1.935,-2.297 -0.185,-0.226 -1.228,-0.417 -1.45,-0.261 -0.131,0.09 -0.087,0.236 -0.089,0.361 -0.004,0.429 0.012,0.859 -0.006,1.288 -0.021,0.523 -0.355,0.825 -0.865,0.814 -0.477,-0.012 -0.804,-0.314 -0.808,-0.814 -0.011,-1.998 -0.012,-3.996 10e-4,-5.994 0.003,-0.527 0.321,-0.842 0.839,-0.847 1.047,-0.01 2.095,-0.044 3.138,0.024 1.832,0.12 2.838,1.695 2.247,3.436 -0.169,0.496 -0.461,0.922 -0.928,1.148 -0.444,0.216 -0.356,0.402 -0.089,0.681 0.231,0.242 0.433,0.516 0.645,0.776 0.638,0.787 0.579,1.178 -0.252,1.684 -0.149,10e-4 -0.298,10e-4 -0.448,10e-4 z m -3.455,-5.148 c 0,0.262 0.005,0.523 -10e-4,0.783 -0.006,0.208 0.077,0.315 0.294,0.308 0.613,-0.024 1.234,0.074 1.841,-0.081 0.537,-0.139 0.841,-0.532 0.808,-1.059 -0.032,-0.531 -0.313,-0.879 -0.843,-0.968 -0.328,-0.055 -0.669,-0.055 -1.004,-0.058 -1.096,-0.005 -1.096,-10e-4 -1.095,1.075 z"
         id="path7"
         inkscape:connector-curvature="0"
         style="fill:#6e6f72;fill-rule:evenodd" /><path
         clip-rule="evenodd"
         d="m 43.478,54.101 c -0.532,-0.296 -0.74,-0.754 -0.652,-1.349 0.177,-1.199 -0.169,-2.205 -0.995,-3.104 -0.526,-0.572 -0.941,-1.248 -1.395,-1.887 -0.364,-0.516 -0.314,-1.045 0.107,-1.331 0.433,-0.294 0.944,-0.178 1.304,0.327 0.529,0.744 1.056,1.49 1.554,2.256 0.224,0.342 0.354,0.393 0.601,0.018 0.48,-0.731 1,-1.438 1.504,-2.154 0.14,-0.198 0.282,-0.402 0.51,-0.506 0.381,-0.175 0.751,-0.135 1.015,0.192 0.295,0.365 0.237,0.776 -0.027,1.139 -0.681,0.933 -1.362,1.866 -2.074,2.777 -0.279,0.358 -0.431,0.715 -0.393,1.175 0.033,0.389 -0.019,0.784 0.013,1.173 0.047,0.604 -0.162,1.037 -0.733,1.273 -0.115,10e-4 -0.226,10e-4 -0.339,10e-4 z"
         id="path9"
         inkscape:connector-curvature="0"
         style="fill:#6e6f72;fill-rule:evenodd" /><path
         clip-rule="evenodd"
         d="M 6.226,49.435 C 5.851,49.845 5.48,50.256 5.103,50.664 4.565,51.245 4.037,51.263 3.457,50.721 3.026,50.319 2.653,49.855 2.056,49.442 c 0,0.346 0,0.597 0,0.847 0,0.914 0.008,1.829 -0.006,2.742 C 2.042,53.593 1.701,53.96 1.224,53.966 0.738,53.973 0.413,53.613 0.413,53.039 0.407,51.099 0.415,49.158 0.405,47.217 0.403,46.782 0.516,46.405 0.953,46.284 c 0.436,-0.12 0.868,-0.105 1.222,0.304 0.619,0.723 1.29,1.398 1.911,2.119 0.262,0.304 0.396,0.259 0.612,-0.04 C 5.19,47.988 5.73,47.344 6.22,46.661 6.551,46.2 6.995,46.153 7.461,46.288 c 0.459,0.133 0.578,0.521 0.576,0.976 -0.01,1.866 -0.004,3.732 -0.004,5.599 -0.002,0.131 0.001,0.264 -0.025,0.391 -0.094,0.467 -0.48,0.776 -0.92,0.71 C 6.621,53.894 6.355,53.617 6.353,53.129 6.351,51.921 6.352,50.711 6.352,49.501 6.309,49.477 6.268,49.456 6.226,49.435 z"
         id="path11"
         inkscape:connector-curvature="0"
         style="fill:#6e6f72;fill-rule:evenodd" /><path
         clip-rule="evenodd"
         d="m 25.877,50.125 c 0,-0.915 -0.004,-1.831 0.002,-2.746 0.004,-0.758 0.291,-1.065 1.041,-1.065 1.325,-0.002 2.65,0.024 3.976,0.03 0.495,0.002 0.781,0.223 0.808,0.723 0.024,0.47 -0.279,0.763 -0.829,0.77 -0.952,0.01 -1.905,0.005 -2.855,-0.021 -0.339,-0.008 -0.446,0.091 -0.449,0.438 -0.009,1.067 -0.024,1.065 1.022,1.082 0.615,0.011 1.23,0.032 1.846,0.035 0.481,0.002 0.729,0.264 0.786,0.705 0.051,0.406 -0.302,0.772 -0.768,0.783 -0.84,0.02 -1.682,0.021 -2.521,10e-4 -0.298,-0.008 -0.375,0.071 -0.385,0.367 -0.034,1.169 -0.046,1.171 1.135,1.19 0.729,0.012 1.456,0.01 2.185,0.021 0.551,0.01 0.866,0.275 0.885,0.729 0.02,0.459 -0.325,0.797 -0.882,0.797 -1.381,0.002 -2.763,-0.011 -4.144,-0.036 -0.562,-0.012 -0.843,-0.313 -0.85,-0.89 -0.01,-0.971 -0.002,-1.941 -0.003,-2.913 z"
         id="path13"
         inkscape:connector-curvature="0"
         style="fill:#6e6f72;fill-rule:evenodd" /><path
         clip-rule="evenodd"
         d="m 20.021,49.546 c 0.867,-0.893 1.731,-1.788 2.598,-2.681 0.143,-0.148 0.281,-0.302 0.443,-0.427 0.379,-0.29 0.899,-0.262 1.164,0.068 0.305,0.382 0.262,0.775 -0.073,1.105 -0.585,0.576 -1.177,1.147 -1.8,1.679 -0.309,0.265 -0.347,0.435 -0.072,0.758 0.673,0.798 1.309,1.629 1.95,2.451 0.403,0.518 0.386,1.02 -0.025,1.331 -0.401,0.306 -0.926,0.202 -1.309,-0.29 -0.618,-0.796 -1.229,-1.595 -1.824,-2.408 -0.216,-0.296 -0.345,-0.314 -0.64,-0.065 -0.449,0.383 -0.695,0.798 -0.596,1.395 0.027,0.163 0.006,0.335 0.004,0.503 -0.014,0.664 -0.307,1.018 -0.846,1.022 -0.533,0.006 -0.852,-0.364 -0.854,-1.012 -0.004,-1.082 -0.002,-2.165 -0.002,-3.247 0,-0.82 -0.004,-1.642 0.002,-2.463 0.006,-0.649 0.32,-1.019 0.851,-1.026 0.54,-0.009 0.843,0.349 0.849,1.009 0.004,0.725 0,1.448 0,2.173 0.061,0.043 0.12,0.084 0.18,0.125 z"
         id="path15"
         inkscape:connector-curvature="0"
         style="fill:#6e6f72;fill-rule:evenodd" /><path
         clip-rule="evenodd"
         d="m 13.022,48.385 c -0.681,1.597 -1.36,3.188 -2.038,4.781 -0.052,0.121 -0.092,0.246 -0.156,0.358 -0.24,0.415 -0.716,0.58 -1.102,0.361 C 9.308,53.65 9.182,53.292 9.383,52.84 c 0.771,-1.736 1.544,-3.474 2.317,-5.21 0.121,-0.273 0.24,-0.546 0.365,-0.817 0.201,-0.433 0.549,-0.648 1.021,-0.652 0.475,-0.004 0.828,0.204 1.023,0.643 0.883,1.993 1.768,3.987 2.637,5.987 0.221,0.506 0.052,0.937 -0.385,1.127 -0.444,0.194 -0.899,0.012 -1.129,-0.52 -0.65,-1.504 -1.275,-3.021 -1.916,-4.53 -0.068,-0.164 -0.082,-0.371 -0.294,-0.483 z"
         id="path17"
         inkscape:connector-curvature="0"
         style="fill:#6e6f72;fill-rule:evenodd" /></g><g
       id="g19"><path
         d="m 39.331,0.399 c 2.204,0 4.409,0 6.614,0 0.797,0.281 1.26,0.774 1.259,1.689 -0.011,12.219 -0.007,24.438 -0.009,36.655 0,1.072 -0.589,1.655 -1.666,1.659 -1.27,0.005 -2.54,0.002 -3.811,10e-4 -1.259,-10e-4 -1.809,-0.551 -1.809,-1.805 -0.006,-8.967 -0.014,-17.936 -0.015,-26.902 0,-0.43 -0.005,-0.848 -0.455,-1.052 -0.459,-0.208 -0.777,0.077 -1.077,0.377 -2.808,2.82 -5.619,5.636 -8.425,8.459 -0.66,0.665 -0.64,1.337 0.022,2 1.238,1.244 2.477,2.49 3.711,3.739 0.751,0.759 0.761,1.602 0.017,2.357 -0.917,0.934 -1.843,1.856 -2.772,2.774 -0.796,0.786 -1.612,0.778 -2.399,-0.005 -1.113,-1.108 -2.222,-2.219 -3.331,-3.329 -1.228,-1.227 -1.617,-1.221 -2.845,-0.019 -0.252,0.248 -0.239,0.377 0.006,0.615 1.109,1.084 2.2,2.186 3.294,3.285 0.574,0.575 0.575,0.842 0.021,1.397 -0.588,0.589 -0.874,0.601 -1.444,0.029 -1.097,-1.097 -2.192,-2.192 -3.273,-3.304 -0.233,-0.24 -0.369,-0.286 -0.61,-0.015 -0.373,0.418 -0.774,0.811 -1.188,1.189 -0.234,0.215 -0.23,0.35 0,0.573 0.818,0.792 1.619,1.603 2.421,2.412 0.528,0.534 0.515,0.788 -0.05,1.354 -0.567,0.565 -0.842,0.585 -1.354,0.075 -0.811,-0.803 -1.62,-1.604 -2.416,-2.421 -0.205,-0.209 -0.342,-0.277 -0.574,-0.023 -0.389,0.429 -0.803,0.836 -1.227,1.229 -0.217,0.202 -0.209,0.336 0,0.536 0.541,0.515 1.066,1.046 1.589,1.58 0.413,0.426 0.393,0.765 -0.051,1.202 -0.604,0.597 -0.907,0.646 -1.37,0.204 -0.352,-0.337 -0.689,-0.687 -1.032,-1.029 -0.81,-0.811 -0.811,-0.812 -1.634,0.017 -0.29,0.292 -0.77,0.563 -0.81,0.89 -0.05,0.387 0.517,0.613 0.78,0.94 0.025,0.029 0.054,0.054 0.078,0.082 0.359,0.425 0.293,0.735 -0.268,1.281 -0.438,0.426 -0.77,0.452 -1.166,0.11 -0.334,-0.289 -0.611,-0.892 -0.967,-0.837 -0.377,0.059 -0.714,0.556 -1.014,0.908 C 9.343,40.139 8.423,40.463 7.3,40.428 5.638,40.376 3.974,40.403 2.312,40.399 0.885,40.395 0.367,39.879 0.371,38.431 0.379,35.798 0.404,33.165 0.406,30.532 0.412,21.065 0.41,11.593 0.41,2.121 0.41,1.033 0.976,0.47 2.059,0.454 2.526,0.447 2.992,0.494 3.455,0.399 c 1.607,0 3.214,0 4.82,0 0.881,0.229 1.498,0.829 2.116,1.452 4.104,4.131 8.22,8.247 12.333,12.37 0.775,0.774 1.38,0.774 2.152,0.004 C 29.01,10.098 33.147,5.976 37.273,1.841 37.88,1.236 38.47,0.63 39.331,0.399 z M 7.715,20.439 c -0.006,0 -0.012,0 -0.018,0 0,2.97 0.004,5.939 -0.004,8.91 -0.002,0.414 0.117,0.733 0.516,0.9 0.377,0.162 0.648,-0.036 0.895,-0.282 2.887,-2.873 5.773,-5.744 8.65,-8.625 0.533,-0.534 0.546,-1.221 0.023,-1.748 -2.87,-2.889 -5.753,-5.766 -8.629,-8.648 -0.282,-0.283 -0.587,-0.484 -0.992,-0.303 -0.4,0.183 -0.447,0.541 -0.445,0.94 0.009,2.954 0.004,5.904 0.004,8.856 z"
         id="path21"
         inkscape:connector-curvature="0"
         style="fill:#018ec4" /><path
         clip-rule="evenodd"
         d="m 31.37,0.399 c 0.423,0.227 0.858,0.432 0.911,1.003 C 32.332,1.958 32.06,2.4 31.54,2.574 31.038,2.741 30.504,2.526 30.255,2.056 30.009,1.589 30.128,1.042 30.534,0.692 30.659,0.585 30.856,0.58 30.921,0.399 c 0.151,0 0.3,0 0.449,0 z m 0.244,1.145 C 31.595,1.291 31.464,1.145 31.224,1.145 30.961,1.143 30.795,1.289 30.802,1.56 c 0.006,0.237 0.161,0.393 0.391,0.396 0.256,0.003 0.408,-0.155 0.421,-0.412 z"
         id="path23"
         inkscape:connector-curvature="0"
         style="fill:#018ec4;fill-rule:evenodd" /><path
         clip-rule="evenodd"
         d="m 20.944,8.945 c -0.006,-1.63 1.273,-2.923 2.889,-2.921 1.595,0.002 2.873,1.277 2.885,2.873 0.012,1.625 -1.272,2.922 -2.892,2.918 C 22.23,11.813 20.95,10.538 20.944,8.945 z M 25.109,8.927 C 25.112,8.226 24.534,7.64 23.835,7.638 c -0.694,-0.004 -1.296,0.587 -1.3,1.277 -0.006,0.685 0.598,1.286 1.289,1.288 0.699,0.002 1.282,-0.576 1.285,-1.276 z"
         id="path25"
         inkscape:connector-curvature="0"
         style="fill:#018ec4;fill-rule:evenodd" /><path
         clip-rule="evenodd"
         d="m 28.183,2.633 c 1.101,0.019 1.984,0.938 1.953,2.029 C 30.105,5.766 29.207,6.618 28.093,6.6 26.978,6.58 26.13,5.694 26.157,4.573 c 0.029,-1.126 0.9,-1.961 2.026,-1.94 z m 0.813,1.983 c -10e-4,-0.454 -0.4,-0.852 -0.855,-0.852 -0.453,-0.002 -0.857,0.399 -0.857,0.852 -0.002,0.462 0.387,0.847 0.856,0.845 0.47,0 0.857,-0.38 0.856,-0.845 z"
         id="path27"
         inkscape:connector-curvature="0"
         style="fill:#018ec4;fill-rule:evenodd" /></g></g></svg>